<?xml version="1.0" encoding="UTF-8"?>
<svg id="Layer_1" xmlns="http://www.w3.org/2000/svg" version="1.1" viewBox="0 0 172.48 98.99">
  <!-- Generator: Adobe Illustrator 29.2.1, SVG Export Plug-In . SVG Version: 2.1.0 Build 116)  -->
  <defs>
    <style>
      .st0 {
        fill: #4e612c;
      }
    </style>
  </defs>
  <g>
    <path class="st0" d="M110.76,27.49s-7.77,1.38-7.83,9.21v19.47s.29,6.23-4.06,10.83h11.12c1.23,0,2.22-1,2.22-2.22v-5.19h-.49s-.34,4.4-5.19,4.61h-4.24s4.98-3.57,5.66-7.29c.05-3.87.01-20.38,0-23.87,0-.8.1-1.61.34-2.38.35-1.16,1.07-2.59,2.48-3.17Z"/>
    <path class="st0" d="M92.85,27.49s-7.77,1.38-7.83,9.21v19.47s.29,6.23-4.06,10.83h11.12c1.23,0,2.22-1,2.22-2.22v-5.19h-.49s-.34,4.4-5.19,4.61h-4.24s4.98-3.57,5.66-7.29c.05-3.87.01-20.38,0-23.87,0-.8.1-1.61.34-2.38.35-1.16,1.07-2.59,2.48-3.17Z"/>
    <path class="st0" d="M103.43,22.97s-7.36.44-11.51,4.06c.61-1.62,6.6-12.42,19.07-6.47-.83,1.31-4.43,10.06-18.73,7.16.09-.45,5.49-3.67,11.17-4.75Z"/>
    <path class="st0" d="M84.13,29.56c-.13,1.31-.32,5.89,3.07,6.6,0,3.54-2.18,1.71-2.18,1.71,0,0-2.28-3.6-2.12-8.15,0-.16.13-.3.29-.33l.63-.12c.17-.03.33.11.31.28Z"/>
    <path class="st0" d="M89.18,17.26s-6.29,7.69-5.33,12.8c.47-.53,7.64-4.36,9.39-9.86.78-2.14,1.94-6.17.5-8.67-1.25.14-5.73.93-8.87,5.35-2.04,2.87-2.84,6.45-2.34,9.94.18,1.25.37,2.18.37,2.18,0,0,.74-7.03,6.29-11.75Z"/>
    <path class="st0" d="M82.89,34.22s-5.08-4.36-11.93-4.42c2.36.82,10.63,3.67,11.94,5.26-.11.05-.24.09-.4.13-3.38.91-16.85.34-19.57-7.7,0,0,5.3-3.78,13.32-.56,2.39,1.35,5.83,2.81,6.63,7.29Z"/>
    <path class="st0" d="M82.07,35.01s2.35,1.19,2.75,1.79c-.1-.8-2.55-2.27-2.55-2.27l-.27.34.07.14Z"/>
    <path class="st0" d="M22.66,54.59"/>
    <path class="st0" d="M73.28,72.12"/>
    <path class="st0" d="M41.09,47.69c3.13-1.01,4.18-3.7,4.73-5.15.89-2.73.46-5.02-.25-6.72-.9-2.15-2.5-3.93-4.53-5.07-2.46-1.38-4.88-1.56-6.51-1.63-3.63-.1-4.62.5-5.72,1-.09.04-.17.08-.26.12-3.62,1.74-5.88,5.44-5.88,9.45v21.44c-.34,3.22-2.56,5.86-2.56,5.86h18.24c6.57-.12,8.91-5.79,9.37-7.7,2.31-7.7-6.64-11.6-6.64-11.6ZM28.36,37.66c.18-5.55,4-5.94,5.16-6.02,5.44,0,6.86,4.67,7.1,6.11.66,5.76-2.82,8.33-5.64,10.37-6.18,4.05-6.62,5.34-6.62,5.34,0,0-.26-10.69,0-15.8ZM35.21,63.68c-4.46.29-6.66-2.91-6.84-6.5-.16-3.2,1.93-6.6,6.84-6.5,3.85.08,6.97,3.12,6.98,6.5,0,4.53-3.13,6.25-6.98,6.5Z"/>
    <path class="st0" d="M126.34,38.47s-6.07,6.04-2.52,17.28c.84,2.47,2.62,8.79,10.81,9.88,1.58.05,6.07.35,9.18-5.04-.15,1.09-3.39,8.85-14.72,5.96-3.08-1.18-10.36-4.15-12.01-13.66-.29-1.6-1.74-9.87,5.27-13.76.83-.46,1.76-.73,2.7-.78.39-.02.72,0,1.27.11Z"/>
    <path class="st0" d="M125.24,31.98s10.32-4.91,18.04,6.29c1.51,2.45,5.62,11.85,1.69,19.17,1.82.08,7.17-.76,7.4-10.33-.14-2.53-.39-9.59-10.18-15.02-2.87-1.59-6.08-2.5-9.36-2.52-2.69-.02-5.61.53-7.6,2.41Z"/>
    <ellipse class="st0" cx="137.52" cy="41.36" rx="4.43" ry="7.51" transform="translate(.1 83.06) rotate(-33.62)"/>
    <ellipse class="st0" cx="134.8" cy="56.9" rx="7.14" ry="4.55" transform="translate(-8.96 84.15) rotate(-33.62)"/>
    <path class="st0" d="M74.79,40.76c.96,1.01,1.91,2.58,1.2,4.55-.49-.77-1.28-2.35-3.32-3.12-.56-.21-1.15-.31-1.75-.31h-8.11s-3.08.51-3.61,3.79v5.38h10.9c1.06,0,1.91.86,1.91,1.91h0c0,1.06-.86,1.91-1.91,1.91h-10.96s0,2.62,0,2.62c0,3.57,2.89,6.46,6.46,6.46h5.16s3.37-.75,4.79-3.64c.37,0,.42.12.3,1.17-.27,1.02-1.6,5.59-4.79,5.66h-11.25s-4.84-1.57-5.46-6.41v-14.57s.15-2.58,2.45-4.28c-.84-.84-1.91-1.23-4.22-1.11.4-.66,1.84-2.39,4.59-2.87,2.18-.44,4.2.98,7.38,1.65h7.39c1.08,0,2.12.44,2.86,1.22Z"/>
  </g>
  <g>
    <g>
      <path class="st0" d="M67.94,77.44v4.73h1.34c1.03,0,1.69-.56,1.76-.84v1.94c-.07-.28-.73-.84-1.76-.84h-1.34v3.53c0,.85.28,1.41.56,1.48h-2.5c.28-.07.56-.63.56-1.48v-7.32c0-.85-.28-1.41-.56-1.48h6.6v.28l.18,2.03c-.29-1.1-1.25-2.03-2.73-2.03h-2.1Z"/>
      <path class="st0" d="M83.84,82.66c0,2.45-1.37,4.79-4.44,4.79s-4.47-2.62-4.47-5.22,1.46-5.07,4.47-5.07c2.81,0,4.44,2.81,4.44,5.5ZM83.05,83.86c0-2.6-1.87-5.98-4.65-5.98-1.82,0-2.62,1.44-2.62,3.16,0,2.57,1.78,5.79,4.66,5.79,1.85,0,2.6-1.32,2.6-2.97Z"/>
      <path class="st0" d="M95.31,82.66c0,2.45-1.37,4.79-4.44,4.79s-4.47-2.62-4.47-5.22,1.46-5.07,4.47-5.07c2.81,0,4.44,2.81,4.44,5.5ZM94.52,83.86c0-2.6-1.87-5.98-4.65-5.98-1.82,0-2.62,1.44-2.62,3.16,0,2.57,1.78,5.79,4.66,5.79,1.85,0,2.6-1.32,2.6-2.97Z"/>
      <path class="st0" d="M105.81,82.31c0,2.57-1.48,5.15-4.48,5.15h-3.63c.28-.07.56-.63.56-1.48v-7.32c0-.85-.28-1.41-.56-1.48h3.63c3,0,4.48,2.57,4.48,5.15ZM104.36,82.28c0-2.43-1-4.84-3.04-4.84h-1.69v9.73h1.69c2.03,0,3.04-2.45,3.04-4.9Z"/>
    </g>
    <polygon class="st0" points="56.1 82.28 56.1 84.3 42.91 83.29 56.1 82.28"/>
    <polygon class="st0" points="129.57 83.29 116.37 84.3 116.37 82.28 129.57 83.29"/>
  </g>
</svg>